<svg width="1440" height="1024" viewBox="0 0 1440 1024" fill="none" xmlns="http://www.w3.org/2000/svg">
<rect width="1440" height="1024" fill="white"/>
<g opacity="0.75">
<g opacity="0.75">
<g opacity="0.75">
<path opacity="0.75" d="M703.04 442.073C703.045 439.588 701.034 437.569 698.549 437.564C696.063 437.559 694.045 439.57 694.04 442.055C694.035 444.54 696.046 446.559 698.531 446.564C701.016 446.569 703.035 444.558 703.04 442.073Z" fill="#63D6E6"/>
<path opacity="0.75" d="M703.095 407.953C703.1 405.468 701.089 403.449 698.604 403.444C696.118 403.44 694.1 405.45 694.095 407.936C694.09 410.421 696.1 412.44 698.586 412.444C701.071 412.449 703.09 410.439 703.095 407.953Z" fill="#63D6E6"/>
<path opacity="0.75" d="M703.15 373.934C703.155 371.448 701.144 369.43 698.658 369.425C696.173 369.42 694.155 371.431 694.15 373.916C694.145 376.401 696.156 378.42 698.641 378.425C701.126 378.43 703.145 376.419 703.15 373.934Z" fill="#63D6E6"/>
<path opacity="0.75" d="M703.205 339.814C703.21 337.329 701.199 335.31 698.714 335.305C696.228 335.3 694.21 337.311 694.205 339.796C694.2 342.282 696.21 344.3 698.696 344.305C701.181 344.31 703.2 342.3 703.205 339.814Z" fill="#63D6E6"/>
<path opacity="0.75" d="M703.259 305.695C703.264 303.21 701.254 301.191 698.769 301.186C696.283 301.181 694.264 303.192 694.259 305.677C694.254 308.163 696.265 310.181 698.75 310.186C701.236 310.191 703.254 308.181 703.259 305.695Z" fill="#63D6E6"/>
<path opacity="0.75" d="M703.314 271.676C703.319 269.191 701.309 267.172 698.823 267.167C696.338 267.162 694.319 269.172 694.314 271.658C694.309 274.143 696.32 276.162 698.805 276.167C701.291 276.172 703.309 274.161 703.314 271.676Z" fill="#63D6E6"/>
</g>
<g opacity="0.75">
<path opacity="0.75" d="M671.409 407.942C671.414 405.456 669.403 403.438 666.918 403.433C664.432 403.428 662.414 405.439 662.409 407.924C662.404 410.409 664.414 412.428 666.9 412.433C669.385 412.438 671.404 410.427 671.409 407.942Z" fill="#63D6E6"/>
<path opacity="0.75" d="M671.464 373.822C671.469 371.337 669.458 369.318 666.973 369.313C664.487 369.308 662.469 371.319 662.464 373.804C662.459 376.29 664.47 378.308 666.955 378.313C669.44 378.318 671.459 376.308 671.464 373.822Z" fill="#63D6E6"/>
<path opacity="0.75" d="M671.519 339.803C671.524 337.317 669.513 335.299 667.027 335.294C664.542 335.289 662.523 337.3 662.519 339.785C662.514 342.27 664.525 344.289 667.01 344.294C669.495 344.299 671.514 342.288 671.519 339.803Z" fill="#63D6E6"/>
<path opacity="0.75" d="M671.674 305.684C671.679 303.199 669.668 301.18 667.183 301.175C664.697 301.17 662.679 303.18 662.674 305.666C662.669 308.151 664.679 310.17 667.164 310.175C669.65 310.18 671.669 308.169 671.674 305.684Z" fill="#63D6E6"/>
<path opacity="0.75" d="M671.729 271.564C671.734 269.079 669.723 267.06 667.238 267.055C664.752 267.05 662.734 269.061 662.729 271.546C662.724 274.032 664.734 276.05 667.22 276.055C669.705 276.06 671.724 274.05 671.729 271.564Z" fill="#63D6E6"/>
</g>
<g opacity="0.75">
<path opacity="0.75" d="M639.878 373.811C639.883 371.325 637.872 369.307 635.387 369.302C632.902 369.297 630.883 371.307 630.878 373.793C630.873 376.278 632.884 378.297 635.369 378.302C637.854 378.307 639.873 376.296 639.878 373.811Z" fill="#63D6E6"/>
<path opacity="0.75" d="M639.933 339.691C639.938 337.206 637.927 335.187 635.442 335.182C632.957 335.177 630.938 337.188 630.933 339.673C630.928 342.159 632.939 344.177 635.424 344.182C637.909 344.187 639.928 342.176 639.933 339.691Z" fill="#63D6E6"/>
<path opacity="0.75" d="M639.988 305.572C639.993 303.087 637.982 301.068 635.497 301.063C633.012 301.058 630.993 303.069 630.988 305.554C630.983 308.039 632.994 310.058 635.479 310.063C637.964 310.068 639.983 308.057 639.988 305.572Z" fill="#63D6E6"/>
<path opacity="0.75" d="M640.043 271.553C640.048 269.067 638.037 267.048 635.552 267.043C633.066 267.038 631.048 269.049 631.043 271.534C631.038 274.02 633.048 276.038 635.534 276.043C638.019 276.048 640.038 274.038 640.043 271.553Z" fill="#63D6E6"/>
</g>
<g opacity="0.75">
<path opacity="0.75" d="M608.247 339.679C608.252 337.194 606.241 335.175 603.756 335.171C601.271 335.166 599.252 337.176 599.247 339.662C599.242 342.147 601.253 344.166 603.738 344.171C606.223 344.175 608.242 342.165 608.247 339.679Z" fill="#63D6E6"/>
<path opacity="0.75" d="M608.302 305.56C608.307 303.075 606.296 301.056 603.811 301.051C601.326 301.046 599.307 303.057 599.302 305.542C599.297 308.028 601.308 310.046 603.793 310.051C606.278 310.056 608.297 308.045 608.302 305.56Z" fill="#63D6E6"/>
<path opacity="0.75" d="M608.357 271.441C608.362 268.955 606.351 266.937 603.866 266.932C601.381 266.927 599.362 268.938 599.357 271.423C599.352 273.908 601.363 275.927 603.848 275.932C606.333 275.937 608.352 273.926 608.357 271.441Z" fill="#63D6E6"/>
</g>
<g opacity="0.75">
<path opacity="0.75" d="M577.983 305.541C577.988 303.056 575.977 301.037 573.491 301.032C571.006 301.027 568.988 303.038 568.983 305.523C568.978 308.008 570.988 310.027 573.474 310.032C575.959 310.037 577.978 308.026 577.983 305.541Z" fill="#63D6E6"/>
<path opacity="0.75" d="M578.038 271.421C578.043 268.936 576.032 266.917 573.546 266.912C571.061 266.908 569.043 268.918 569.038 271.404C569.033 273.889 571.043 275.908 573.529 275.912C576.014 275.917 578.033 273.907 578.038 271.421Z" fill="#63D6E6"/>
</g>
<g opacity="0.75">
<path opacity="0.75" d="M548.009 271.493C548.014 269.007 546.003 266.989 543.518 266.984C541.033 266.979 539.014 268.99 539.009 271.475C539.004 273.96 541.015 275.979 543.5 275.984C545.985 275.989 548.004 273.978 548.009 271.493Z" fill="#63D6E6"/>
</g>
</g>
<path opacity="0.75" d="M833.82 133.913C860.72 121.813 894.32 120.913 920.42 134.513C946.52 148.113 960.22 188.613 956.02 217.713C953.42 235.413 943.42 252.113 945.22 269.913C947.82 295.913 973.72 312.213 988.72 333.613C1008.92 362.313 1008.72 403.113 990.52 433.113C972.32 463.113 937.92 481.813 902.82 483.713C867.72 485.513 832.72 471.413 806.62 447.913C790.92 433.713 779.22 415.213 762.02 402.913C718.02 371.713 642.62 410.313 614.12 383.113C576.02 346.613 599.02 289.413 623.62 272.213C674.32 236.713 707.72 274.213 752.32 255.713C768.72 248.913 784.92 238.413 792.12 222.113C799.12 206.413 795.92 157.113 833.82 133.913Z" fill="#F7FAFF"/>
<path opacity="0.75" d="M725.32 217.413C705.52 234.513 680.62 222.113 666.72 227.213C647.72 234.213 637.42 260.113 638.62 274.813C639.72 288.313 656.12 298.213 667.42 305.813C678.72 313.413 691.32 320.313 697.92 332.213C707.12 348.613 702.12 368.913 699.22 387.513C695.72 409.713 695.92 433.613 706.52 453.413C717.42 473.813 739.32 487.913 762.42 489.313C785.52 490.713 809.02 479.513 822.32 460.613C828.02 452.513 832.02 443.213 838.62 435.713C845.72 427.713 855.52 422.413 865.82 419.013C902.12 407.013 945.22 428.113 1009.22 383.113C1030.62 368.013 1044.52 339.113 1043.02 313.013C1041.82 292.813 1028.42 274.613 1011.02 264.413C993.62 254.213 972.62 251.213 952.52 252.513C933.12 253.813 913.72 258.813 894.52 255.513C875.32 252.213 856.12 236.913 857.52 217.513C859.72 187.413 853.22 150.313 828.32 133.213C803.32 116.113 764.92 120.713 747.32 145.313C727.92 172.013 746.52 192.413 725.32 217.413Z" fill="#ECE0FF"/>
<g opacity="0.2">
<g opacity="0.5">
<g opacity="0.5">
<path opacity="0.5" d="M675.572 263.258L600.126 342.198L605.403 347.242L680.85 268.301L675.572 263.258Z" fill="#7350D0"/>
<path opacity="0.5" d="M687.191 274.327L611.745 353.267L617.022 358.311L692.468 279.37L687.191 274.327Z" fill="#7350D0"/>
<path opacity="0.5" d="M698.741 285.468L623.295 364.409L628.572 369.452L704.018 290.512L698.741 285.468Z" fill="#7350D0"/>
<path opacity="0.5" d="M710.287 296.468L634.841 375.409L640.118 380.452L715.564 301.512L710.287 296.468Z" fill="#7350D0"/>
<path opacity="0.5" d="M721.906 307.537L646.46 386.478L651.737 391.521L727.183 312.58L721.906 307.537Z" fill="#7350D0"/>
<path opacity="0.5" d="M733.453 318.537L658.006 397.478L663.284 402.521L738.73 323.58L733.453 318.537Z" fill="#7350D0"/>
</g>
</g>
</g>
</g>
<g opacity="0.75">
<path opacity="0.75" d="M617.796 745.026C633.546 737.416 643.586 699.636 625.686 680.396C607.196 660.516 575.756 661.156 555.616 642.946C533.286 622.756 542.766 584.906 528.416 558.436C513.316 530.586 477.846 512.856 446.186 512.026C419.226 511.316 387.926 525.176 371.166 546.296C350.806 571.966 360.126 611.806 341.906 639.036C327.166 661.066 302.516 673.046 277.946 682.986C259.236 690.556 247.036 701.326 233.196 712.276C217.936 724.346 192.716 785.876 241.876 820.506C257.646 831.616 279.216 828.966 297.946 824.386C316.676 819.806 349.106 819.626 368.226 822.196C399.166 826.346 407.816 846.476 428.006 870.296C448.186 894.116 459.386 927.726 496.076 933.026C511.016 935.186 538.706 927.626 551.676 917.896C560.756 911.086 570.586 897.096 572.476 888.016C583.896 833.176 530.116 787.396 617.796 745.026Z" fill="#F7FAFF"/>
<path opacity="0.75" d="M550.856 857.136C536.616 850.936 519.996 828.536 515.366 813.716C510.726 798.896 507.916 783.116 499.306 770.196C489.276 755.136 472.686 745.916 459.886 733.126C447.076 720.336 432.816 689.476 453.736 664.076C466.706 648.326 494.076 644.156 510.516 651.126C531.226 659.906 556.526 670.956 578.986 669.716C595.316 668.816 613.836 659.686 628.066 651.626C657.936 634.676 714.226 635.676 716.216 692.456C716.936 712.886 698.786 732.306 680.876 745.426C663.396 758.236 652.066 772.406 645.186 793.216C616.596 879.736 567.286 864.296 550.856 857.136Z" fill="#E3E9FF"/>
<g opacity="0.5">
<path opacity="0.5" d="M640.216 796.376C632.876 786.316 620.426 786.446 613.216 796.656C606.006 806.866 593.556 806.996 586.216 796.936L585.576 796.066C578.316 786.126 566.036 786.126 558.776 796.066L557.916 797.236C550.656 807.176 538.376 807.176 531.116 797.236L530.256 796.066C522.996 786.126 510.716 786.126 503.456 796.066L502.596 797.236" stroke="url(#paint0_linear)" stroke-width="3" stroke-miterlimit="10" stroke-linecap="round" stroke-linejoin="round"/>
<path opacity="0.5" d="M588.326 821.186C580.986 811.126 568.536 811.256 561.326 821.466C554.116 831.676 541.666 831.806 534.326 821.746L533.686 820.876C526.426 810.936 514.146 810.936 506.886 820.876L506.026 822.046" stroke="url(#paint1_linear)" stroke-width="3" stroke-miterlimit="10" stroke-linecap="round" stroke-linejoin="round"/>
</g>
</g>
<defs>
<linearGradient id="paint0_linear" x1="641.721" y1="796.655" x2="501.101" y2="796.655" gradientUnits="userSpaceOnUse">
<stop stop-color="#5D73D0"/>
<stop offset="0.4436" stop-color="#60A7DB"/>
<stop offset="0.7959" stop-color="#62C9E3"/>
<stop offset="0.986" stop-color="#63D6E6"/>
</linearGradient>
<linearGradient id="paint1_linear" x1="589.831" y1="821.321" x2="504.527" y2="821.321" gradientUnits="userSpaceOnUse">
<stop stop-color="#5D73D0"/>
<stop offset="0.4436" stop-color="#60A7DB"/>
<stop offset="0.7959" stop-color="#62C9E3"/>
<stop offset="0.986" stop-color="#63D6E6"/>
</linearGradient>
</defs>
</svg>
