<?xml version="1.0" encoding="utf-8"?>
<!-- Generator: Adobe Illustrator 21.0.0, SVG Export Plug-In . SVG Version: 6.00 Build 0)  -->
<svg version="1.1" id="Layer_1" xmlns="http://www.w3.org/2000/svg" xmlns:xlink="http://www.w3.org/1999/xlink" x="0px" y="0px"
	 viewBox="0 0 512 512" style="enable-background:new 0 0 512 512;" xml:space="preserve">
<style type="text/css">
	.st0{fill:url(#SVGID_1_);}
	.st1{fill:url(#SVGID_2_);}
	.st2{fill:url(#SVGID_3_);}
</style>
<g>
	<linearGradient id="SVGID_1_" gradientUnits="userSpaceOnUse" x1="184.6843" y1="255.9963" x2="329.2705" y2="255.9963">
		<stop  offset="0" style="stop-color:#5D73D0"/>
		<stop  offset="1" style="stop-color:#7F3ED0"/>
	</linearGradient>
	<path class="st0" d="M318.3,294.3c13.8-17,12.7-42.2-3.1-58c-16.9-16.9-44.5-16.9-61.4,0l-14.5,14.5c-5.3,5.3-14,5.3-19.3,0
		c-2.6-2.6-4-6-4-9.7c0-3.7,1.4-7.1,4-9.7l24.6-24.6c5.8-5.8,5.8-15.2,0-21c-5.8-5.8-15.2-5.8-21,0l-6.8,6.8l-6.5-6.5
		c-5.8-5.8-15.2-5.8-21.1,0c-5.8,5.8-5.8,15.2,0,21.1l6.7,6.6c-6.2,7.7-9.6,17.2-9.6,27.3c0,11.6,4.5,22.5,12.7,30.7
		c8.5,8.5,19.6,12.7,30.7,12.7c11.1,0,22.3-4.2,30.7-12.7l14.5-14.5c5.3-5.3,14-5.3,19.4,0c5.3,5.3,5.3,14,0,19.3l-28.5,28.5
		c-5.8,5.8-5.8,15.2,0,21c2.9,2.9,6.7,4.4,10.5,4.4c3.8,0,7.6-1.5,10.5-4.4l10.7-10.7l6.5,6.5c2.9,2.9,6.7,4.4,10.5,4.4
		c3.8,0,7.6-1.5,10.5-4.4c5.8-5.8,5.8-15.2,0-21L318.3,294.3z"/>
	<linearGradient id="SVGID_2_" gradientUnits="userSpaceOnUse" x1="341.3336" y1="125.656" x2="430.62" y2="125.656">
		<stop  offset="0" style="stop-color:#5D73D0"/>
		<stop  offset="1" style="stop-color:#7F3ED0"/>
	</linearGradient>
	<path class="st1" d="M354.4,94.1c-8.4,8.4-13.1,19.6-13.1,31.6c0,11.9,4.6,23.1,13.1,31.6c8.7,8.7,20.1,13.1,31.6,13.1
		c11.4,0,22.9-4.4,31.6-13.1c17.4-17.4,17.4-45.7,0-63.2C400.2,76.7,371.8,76.7,354.4,94.1z M396.5,136.2c-5.8,5.8-15.2,5.8-21.1,0
		c-5.8-5.8-5.8-15.2,0-21.1c5.8-5.8,15.2-5.8,21.1,0C402.3,120.9,402.3,130.4,396.5,136.2z"/>
	<linearGradient id="SVGID_3_" gradientUnits="userSpaceOnUse" x1="3" y1="255.9982" x2="511" y2="255.9982">
		<stop  offset="0" style="stop-color:#5D73D0"/>
		<stop  offset="1" style="stop-color:#7F3ED0"/>
	</linearGradient>
	<path class="st2" d="M504.9,20.1c-0.2-7.9-6.6-14.2-14.4-14.4L287.5-0.5c-4.1-0.1-8.1,1.5-11,4.4L26,257
		c-30.7,31-30.7,81.5,0,112.5l118.4,119.7c14.9,15.1,34.8,23.4,55.9,23.4c21.1,0,41-8.3,55.9-23.4l250.5-253.1
		c2.9-2.9,4.4-6.8,4.3-10.9L504.9,20.1z M235.1,468.2c-9.3,9.4-21.6,14.5-34.7,14.5c-13.1,0-25.4-5.2-34.7-14.5L47.2,348.5
		c-19.3-19.5-19.3-51.1,0-70.6L293.1,29.5L475.5,35l5.5,184.6L235.1,468.2z"/>
</g>
</svg>
